<svg id="visual" viewBox="0 0 900 600" width="900" height="600" xmlns="http://www.w3.org/2000/svg" xmlns:xlink="http://www.w3.org/1999/xlink" version="1.1"><g transform="translate(438.7512477237514 313.16697511748475)"><path d="M133 -226.3C175.2 -205.9 214.5 -176.2 238.2 -136.9C261.8 -97.7 269.9 -48.8 251.7 -10.5C233.5 27.8 189.1 55.7 165.1 94.3C141.1 133 137.5 182.6 113.4 193.6C89.3 204.7 44.7 177.4 -2.7 182C-50 186.6 -100 223.2 -142.7 222.9C-185.4 222.5 -220.9 185.3 -233.6 142C-246.2 98.7 -236.1 49.3 -215.9 11.7C-195.7 -26 -165.4 -52 -140.6 -74.4C-115.9 -96.7 -96.7 -115.5 -74.2 -147.3C-51.7 -179.2 -25.8 -224.1 9.7 -241C45.3 -257.9 90.7 -246.7 133 -226.3" fill="#E8D5C7"></path></g></svg>