<svg id="visual" viewBox="0 0 900 600" width="900" height="600" xmlns="http://www.w3.org/2000/svg" xmlns:xlink="http://www.w3.org/1999/xlink" version="1.1"><g transform="translate(425.62784212693975 312.9188884846082)"><path d="M138.4 -237.9C176.8 -217.5 203.6 -175.3 222.9 -132C242.2 -88.7 254.1 -44.3 241.3 -7.4C228.4 29.5 190.9 59 164.8 90.6C138.7 122.2 124.1 155.9 98.5 181.2C73 206.4 36.5 223.2 -3 228.4C-42.5 233.6 -85 227.2 -122.8 209.1C-160.6 190.9 -193.8 160.9 -197.5 124.1C-201.3 87.3 -175.6 43.7 -171.3 2.5C-167 -38.7 -183.9 -77.3 -183.2 -119.3C-182.4 -161.3 -164 -206.7 -130.5 -229.8C-97 -253 -48.5 -254 0.7 -255.3C50 -256.6 100 -258.2 138.4 -237.9" fill="#E8D5C7"></path></g></svg>