<svg id="visual" viewBox="0 0 900 600" width="900" height="600" xmlns="http://www.w3.org/2000/svg" xmlns:xlink="http://www.w3.org/1999/xlink" version="1.1"><g transform="translate(443.07918330886156 341.14109262341145)"><path d="M131.4 -205.2C171.3 -178.9 205.3 -144.1 230.1 -101.6C254.8 -59.1 270.5 -9 252.9 28.5C235.3 66.1 184.5 91 144.9 111.6C105.3 132.3 76.9 148.7 46 158.6C15.1 168.6 -18.2 172.1 -45.2 160.9C-72.2 149.8 -92.8 124 -133.7 101.9C-174.6 79.7 -235.8 61.2 -245.2 31.9C-254.7 2.6 -212.4 -37.6 -186.3 -81.1C-160.3 -124.7 -150.4 -171.7 -122.1 -203.3C-93.7 -234.8 -46.9 -250.9 -0.5 -250.1C45.8 -249.2 91.5 -231.5 131.4 -205.2" fill="#E8D5C7"></path></g></svg>