<svg id="visual" viewBox="0 0 900 600" width="900" height="600" xmlns="http://www.w3.org/2000/svg" xmlns:xlink="http://www.w3.org/1999/xlink" version="1.1"><g transform="translate(414.9739818920861 297.28494431179837)"><path d="M128 -217.2C156 -205.5 162 -151.3 181.5 -108C201 -64.7 234 -32.3 247 7.5C260 47.3 253 94.7 223.7 121.1C194.5 147.5 143 153 102 169.3C61 185.7 30.5 212.8 -5.2 221.8C-40.8 230.7 -81.7 221.5 -113.4 199.8C-145.2 178.1 -167.9 144.1 -168.6 108.7C-169.4 73.3 -148.2 36.7 -153.9 -3.3C-159.7 -43.3 -192.4 -86.7 -180.7 -102.9C-168.9 -119.1 -112.6 -108.3 -75 -114.5C-37.5 -120.6 -18.8 -143.8 15.6 -170.9C50 -197.9 100 -228.9 128 -217.2" fill="#E8D5C7"></path></g></svg>